<mxfile host="app.diagrams.net" modified="2024-05-05T11:42:05.813Z" agent="Mozilla/5.0 (Windows NT 10.0; Win64; x64) AppleWebKit/537.36 (KHTML, like Gecko) Chrome/124.0.0.0 Safari/537.36" etag="eVx_GlRAsmZDbZKEw7_p" version="24.3.1" type="device">
  <diagram id="R2lEEEUBdFMjLlhIrx00" name="Page-1">
    <mxGraphModel dx="2643" dy="990" grid="1" gridSize="10" guides="1" tooltips="1" connect="1" arrows="1" fold="1" page="1" pageScale="1" pageWidth="850" pageHeight="1100" math="0" shadow="0" extFonts="Permanent Marker^https://fonts.googleapis.com/css?family=Permanent+Marker">
      <root>
        <mxCell id="0" />
        <mxCell id="1" parent="0" />
        <mxCell id="YAL7oIk_EPzpiQccKfd0-5" value="Visitor" style="shape=table;startSize=30;container=1;collapsible=1;childLayout=tableLayout;fixedRows=1;rowLines=0;fontStyle=1;align=center;resizeLast=1;html=1;fontFamily=Verdana;fontSize=12;labelBackgroundColor=none;fillColor=#1ba1e2;strokeColor=#006EAF;fontColor=#ffffff;shadow=0;swimlaneLine=1;fixDash=0;" parent="1" vertex="1">
          <mxGeometry x="-20" y="100" width="180" height="150" as="geometry" />
        </mxCell>
        <mxCell id="YAL7oIk_EPzpiQccKfd0-6" value="" style="shape=tableRow;horizontal=0;startSize=0;swimlaneHead=0;swimlaneBody=0;fillColor=#1ba1e2;collapsible=0;dropTarget=0;points=[[0,0.5],[1,0.5]];portConstraint=eastwest;top=0;left=0;right=0;bottom=1;fontFamily=Verdana;fontSize=12;labelBackgroundColor=none;strokeColor=#006EAF;fontColor=#ffffff;shadow=0;swimlaneLine=1;fixDash=0;" parent="YAL7oIk_EPzpiQccKfd0-5" vertex="1">
          <mxGeometry y="30" width="180" height="30" as="geometry" />
        </mxCell>
        <mxCell id="YAL7oIk_EPzpiQccKfd0-7" value="PK" style="shape=partialRectangle;connectable=0;fillColor=#1ba1e2;top=0;left=0;bottom=0;right=0;fontStyle=1;overflow=hidden;whiteSpace=wrap;html=1;fontFamily=Verdana;fontSize=12;labelBackgroundColor=none;strokeColor=#006EAF;fontColor=#ffffff;shadow=0;swimlaneLine=1;fixDash=0;" parent="YAL7oIk_EPzpiQccKfd0-6" vertex="1">
          <mxGeometry width="30" height="30" as="geometry">
            <mxRectangle width="30" height="30" as="alternateBounds" />
          </mxGeometry>
        </mxCell>
        <mxCell id="YAL7oIk_EPzpiQccKfd0-8" value="id" style="shape=partialRectangle;connectable=0;fillColor=#1ba1e2;top=0;left=0;bottom=0;right=0;align=left;spacingLeft=6;fontStyle=5;overflow=hidden;whiteSpace=wrap;html=1;fontFamily=Verdana;fontSize=12;labelBackgroundColor=none;strokeColor=#006EAF;fontColor=#ffffff;shadow=0;swimlaneLine=1;fixDash=0;" parent="YAL7oIk_EPzpiQccKfd0-6" vertex="1">
          <mxGeometry x="30" width="150" height="30" as="geometry">
            <mxRectangle width="150" height="30" as="alternateBounds" />
          </mxGeometry>
        </mxCell>
        <mxCell id="YAL7oIk_EPzpiQccKfd0-9" value="" style="shape=tableRow;horizontal=0;startSize=0;swimlaneHead=0;swimlaneBody=0;fillColor=#1ba1e2;collapsible=0;dropTarget=0;points=[[0,0.5],[1,0.5]];portConstraint=eastwest;top=0;left=0;right=0;bottom=0;fontFamily=Verdana;fontSize=12;labelBackgroundColor=none;strokeColor=#006EAF;fontColor=#ffffff;shadow=0;swimlaneLine=1;fixDash=0;" parent="YAL7oIk_EPzpiQccKfd0-5" vertex="1">
          <mxGeometry y="60" width="180" height="30" as="geometry" />
        </mxCell>
        <mxCell id="YAL7oIk_EPzpiQccKfd0-10" value="" style="shape=partialRectangle;connectable=0;fillColor=#1ba1e2;top=0;left=0;bottom=0;right=0;editable=1;overflow=hidden;whiteSpace=wrap;html=1;fontFamily=Verdana;fontSize=12;labelBackgroundColor=none;strokeColor=#006EAF;fontColor=#ffffff;shadow=0;swimlaneLine=1;fixDash=0;" parent="YAL7oIk_EPzpiQccKfd0-9" vertex="1">
          <mxGeometry width="30" height="30" as="geometry">
            <mxRectangle width="30" height="30" as="alternateBounds" />
          </mxGeometry>
        </mxCell>
        <mxCell id="YAL7oIk_EPzpiQccKfd0-11" value="name" style="shape=partialRectangle;connectable=0;fillColor=#1ba1e2;top=0;left=0;bottom=0;right=0;align=left;spacingLeft=6;overflow=hidden;whiteSpace=wrap;html=1;fontFamily=Verdana;fontSize=12;labelBackgroundColor=none;strokeColor=#006EAF;fontColor=#ffffff;shadow=0;swimlaneLine=1;fixDash=0;" parent="YAL7oIk_EPzpiQccKfd0-9" vertex="1">
          <mxGeometry x="30" width="150" height="30" as="geometry">
            <mxRectangle width="150" height="30" as="alternateBounds" />
          </mxGeometry>
        </mxCell>
        <mxCell id="YAL7oIk_EPzpiQccKfd0-12" value="" style="shape=tableRow;horizontal=0;startSize=0;swimlaneHead=0;swimlaneBody=0;fillColor=#1ba1e2;collapsible=0;dropTarget=0;points=[[0,0.5],[1,0.5]];portConstraint=eastwest;top=0;left=0;right=0;bottom=0;fontFamily=Verdana;fontSize=12;labelBackgroundColor=none;strokeColor=#006EAF;fontColor=#ffffff;shadow=0;swimlaneLine=1;fixDash=0;" parent="YAL7oIk_EPzpiQccKfd0-5" vertex="1">
          <mxGeometry y="90" width="180" height="30" as="geometry" />
        </mxCell>
        <mxCell id="YAL7oIk_EPzpiQccKfd0-13" value="FK" style="shape=partialRectangle;connectable=0;fillColor=#1ba1e2;top=0;left=0;bottom=0;right=0;editable=1;overflow=hidden;whiteSpace=wrap;html=1;fontFamily=Verdana;fontSize=12;labelBackgroundColor=none;strokeColor=#006EAF;fontColor=#ffffff;shadow=0;swimlaneLine=1;fixDash=0;fontStyle=1" parent="YAL7oIk_EPzpiQccKfd0-12" vertex="1">
          <mxGeometry width="30" height="30" as="geometry">
            <mxRectangle width="30" height="30" as="alternateBounds" />
          </mxGeometry>
        </mxCell>
        <mxCell id="YAL7oIk_EPzpiQccKfd0-14" value="agency" style="shape=partialRectangle;connectable=0;fillColor=#1ba1e2;top=0;left=0;bottom=0;right=0;align=left;spacingLeft=6;overflow=hidden;whiteSpace=wrap;html=1;fontFamily=Verdana;fontSize=12;labelBackgroundColor=none;strokeColor=#006EAF;fontColor=#ffffff;shadow=0;swimlaneLine=1;fixDash=0;" parent="YAL7oIk_EPzpiQccKfd0-12" vertex="1">
          <mxGeometry x="30" width="150" height="30" as="geometry">
            <mxRectangle width="150" height="30" as="alternateBounds" />
          </mxGeometry>
        </mxCell>
        <mxCell id="YAL7oIk_EPzpiQccKfd0-15" value="" style="shape=tableRow;horizontal=0;startSize=0;swimlaneHead=0;swimlaneBody=0;fillColor=#1ba1e2;collapsible=0;dropTarget=0;points=[[0,0.5],[1,0.5]];portConstraint=eastwest;top=0;left=0;right=0;bottom=0;fontFamily=Verdana;fontSize=12;labelBackgroundColor=none;strokeColor=#006EAF;fontColor=#ffffff;shadow=0;swimlaneLine=1;fixDash=0;" parent="YAL7oIk_EPzpiQccKfd0-5" vertex="1">
          <mxGeometry y="120" width="180" height="30" as="geometry" />
        </mxCell>
        <mxCell id="YAL7oIk_EPzpiQccKfd0-16" value="FK" style="shape=partialRectangle;connectable=0;fillColor=#1ba1e2;top=0;left=0;bottom=0;right=0;editable=1;overflow=hidden;whiteSpace=wrap;html=1;fontFamily=Verdana;fontSize=12;labelBackgroundColor=none;strokeColor=#006EAF;fontColor=#ffffff;shadow=0;swimlaneLine=1;fixDash=0;fontStyle=1" parent="YAL7oIk_EPzpiQccKfd0-15" vertex="1">
          <mxGeometry width="30" height="30" as="geometry">
            <mxRectangle width="30" height="30" as="alternateBounds" />
          </mxGeometry>
        </mxCell>
        <mxCell id="YAL7oIk_EPzpiQccKfd0-17" value="position" style="shape=partialRectangle;connectable=0;fillColor=#1ba1e2;top=0;left=0;bottom=0;right=0;align=left;spacingLeft=6;overflow=hidden;whiteSpace=wrap;html=1;fontFamily=Verdana;fontSize=12;labelBackgroundColor=none;strokeColor=#006EAF;fontColor=#ffffff;shadow=0;swimlaneLine=1;fixDash=0;" parent="YAL7oIk_EPzpiQccKfd0-15" vertex="1">
          <mxGeometry x="30" width="150" height="30" as="geometry">
            <mxRectangle width="150" height="30" as="alternateBounds" />
          </mxGeometry>
        </mxCell>
        <mxCell id="YAL7oIk_EPzpiQccKfd0-18" value="DeptHead" style="shape=table;startSize=30;container=1;collapsible=1;childLayout=tableLayout;fixedRows=1;rowLines=0;fontStyle=1;align=center;resizeLast=1;html=1;fontFamily=Verdana;fontSize=12;labelBackgroundColor=none;fillColor=#1ba1e2;strokeColor=#006EAF;fontColor=#ffffff;shadow=0;swimlaneLine=1;fixDash=0;" parent="1" vertex="1">
          <mxGeometry x="-360" y="380" width="180" height="150" as="geometry" />
        </mxCell>
        <mxCell id="YAL7oIk_EPzpiQccKfd0-19" value="" style="shape=tableRow;horizontal=0;startSize=0;swimlaneHead=0;swimlaneBody=0;fillColor=#1ba1e2;collapsible=0;dropTarget=0;points=[[0,0.5],[1,0.5]];portConstraint=eastwest;top=0;left=0;right=0;bottom=1;fontFamily=Verdana;fontSize=12;labelBackgroundColor=none;strokeColor=#006EAF;fontColor=#ffffff;shadow=0;swimlaneLine=1;fixDash=0;" parent="YAL7oIk_EPzpiQccKfd0-18" vertex="1">
          <mxGeometry y="30" width="180" height="30" as="geometry" />
        </mxCell>
        <mxCell id="YAL7oIk_EPzpiQccKfd0-20" value="PK" style="shape=partialRectangle;connectable=0;fillColor=#1ba1e2;top=0;left=0;bottom=0;right=0;fontStyle=1;overflow=hidden;whiteSpace=wrap;html=1;fontFamily=Verdana;fontSize=12;labelBackgroundColor=none;strokeColor=#006EAF;fontColor=#ffffff;shadow=0;swimlaneLine=1;fixDash=0;" parent="YAL7oIk_EPzpiQccKfd0-19" vertex="1">
          <mxGeometry width="30" height="30" as="geometry">
            <mxRectangle width="30" height="30" as="alternateBounds" />
          </mxGeometry>
        </mxCell>
        <mxCell id="YAL7oIk_EPzpiQccKfd0-21" value="id" style="shape=partialRectangle;connectable=0;fillColor=#1ba1e2;top=0;left=0;bottom=0;right=0;align=left;spacingLeft=6;fontStyle=5;overflow=hidden;whiteSpace=wrap;html=1;fontFamily=Verdana;fontSize=12;labelBackgroundColor=none;strokeColor=#006EAF;fontColor=#ffffff;shadow=0;swimlaneLine=1;fixDash=0;" parent="YAL7oIk_EPzpiQccKfd0-19" vertex="1">
          <mxGeometry x="30" width="150" height="30" as="geometry">
            <mxRectangle width="150" height="30" as="alternateBounds" />
          </mxGeometry>
        </mxCell>
        <mxCell id="YAL7oIk_EPzpiQccKfd0-22" value="" style="shape=tableRow;horizontal=0;startSize=0;swimlaneHead=0;swimlaneBody=0;fillColor=#1ba1e2;collapsible=0;dropTarget=0;points=[[0,0.5],[1,0.5]];portConstraint=eastwest;top=0;left=0;right=0;bottom=0;fontFamily=Verdana;fontSize=12;labelBackgroundColor=none;strokeColor=#006EAF;fontColor=#ffffff;shadow=0;swimlaneLine=1;fixDash=0;" parent="YAL7oIk_EPzpiQccKfd0-18" vertex="1">
          <mxGeometry y="60" width="180" height="30" as="geometry" />
        </mxCell>
        <mxCell id="YAL7oIk_EPzpiQccKfd0-23" value="" style="shape=partialRectangle;connectable=0;fillColor=#1ba1e2;top=0;left=0;bottom=0;right=0;editable=1;overflow=hidden;whiteSpace=wrap;html=1;fontFamily=Verdana;fontSize=12;labelBackgroundColor=none;strokeColor=#006EAF;fontColor=#ffffff;shadow=0;swimlaneLine=1;fixDash=0;" parent="YAL7oIk_EPzpiQccKfd0-22" vertex="1">
          <mxGeometry width="30" height="30" as="geometry">
            <mxRectangle width="30" height="30" as="alternateBounds" />
          </mxGeometry>
        </mxCell>
        <mxCell id="YAL7oIk_EPzpiQccKfd0-24" value="name" style="shape=partialRectangle;connectable=0;fillColor=#1ba1e2;top=0;left=0;bottom=0;right=0;align=left;spacingLeft=6;overflow=hidden;whiteSpace=wrap;html=1;fontFamily=Verdana;fontSize=12;labelBackgroundColor=none;strokeColor=#006EAF;fontColor=#ffffff;shadow=0;swimlaneLine=1;fixDash=0;" parent="YAL7oIk_EPzpiQccKfd0-22" vertex="1">
          <mxGeometry x="30" width="150" height="30" as="geometry">
            <mxRectangle width="150" height="30" as="alternateBounds" />
          </mxGeometry>
        </mxCell>
        <mxCell id="YAL7oIk_EPzpiQccKfd0-25" value="" style="shape=tableRow;horizontal=0;startSize=0;swimlaneHead=0;swimlaneBody=0;fillColor=#1ba1e2;collapsible=0;dropTarget=0;points=[[0,0.5],[1,0.5]];portConstraint=eastwest;top=0;left=0;right=0;bottom=0;fontFamily=Verdana;fontSize=12;labelBackgroundColor=none;strokeColor=#006EAF;fontColor=#ffffff;shadow=0;swimlaneLine=1;fixDash=0;" parent="YAL7oIk_EPzpiQccKfd0-18" vertex="1">
          <mxGeometry y="90" width="180" height="30" as="geometry" />
        </mxCell>
        <mxCell id="YAL7oIk_EPzpiQccKfd0-26" value="" style="shape=partialRectangle;connectable=0;fillColor=#1ba1e2;top=0;left=0;bottom=0;right=0;editable=1;overflow=hidden;whiteSpace=wrap;html=1;fontFamily=Verdana;fontSize=12;labelBackgroundColor=none;strokeColor=#006EAF;fontColor=#ffffff;shadow=0;swimlaneLine=1;fixDash=0;" parent="YAL7oIk_EPzpiQccKfd0-25" vertex="1">
          <mxGeometry width="30" height="30" as="geometry">
            <mxRectangle width="30" height="30" as="alternateBounds" />
          </mxGeometry>
        </mxCell>
        <mxCell id="YAL7oIk_EPzpiQccKfd0-27" value="position" style="shape=partialRectangle;connectable=0;fillColor=#1ba1e2;top=0;left=0;bottom=0;right=0;align=left;spacingLeft=6;overflow=hidden;whiteSpace=wrap;html=1;fontFamily=Verdana;fontSize=12;labelBackgroundColor=none;strokeColor=#006EAF;fontColor=#ffffff;shadow=0;swimlaneLine=1;fixDash=0;" parent="YAL7oIk_EPzpiQccKfd0-25" vertex="1">
          <mxGeometry x="30" width="150" height="30" as="geometry">
            <mxRectangle width="150" height="30" as="alternateBounds" />
          </mxGeometry>
        </mxCell>
        <mxCell id="YAL7oIk_EPzpiQccKfd0-28" value="" style="shape=tableRow;horizontal=0;startSize=0;swimlaneHead=0;swimlaneBody=0;fillColor=#1ba1e2;collapsible=0;dropTarget=0;points=[[0,0.5],[1,0.5]];portConstraint=eastwest;top=0;left=0;right=0;bottom=0;fontFamily=Verdana;fontSize=12;labelBackgroundColor=none;strokeColor=#006EAF;fontColor=#ffffff;shadow=0;swimlaneLine=1;fixDash=0;" parent="YAL7oIk_EPzpiQccKfd0-18" vertex="1">
          <mxGeometry y="120" width="180" height="30" as="geometry" />
        </mxCell>
        <mxCell id="YAL7oIk_EPzpiQccKfd0-29" value="" style="shape=partialRectangle;connectable=0;fillColor=#1ba1e2;top=0;left=0;bottom=0;right=0;editable=1;overflow=hidden;whiteSpace=wrap;html=1;fontFamily=Verdana;fontSize=12;labelBackgroundColor=none;strokeColor=#006EAF;fontColor=#ffffff;shadow=0;swimlaneLine=1;fixDash=0;" parent="YAL7oIk_EPzpiQccKfd0-28" vertex="1">
          <mxGeometry width="30" height="30" as="geometry">
            <mxRectangle width="30" height="30" as="alternateBounds" />
          </mxGeometry>
        </mxCell>
        <mxCell id="YAL7oIk_EPzpiQccKfd0-30" value="incharge" style="shape=partialRectangle;connectable=0;fillColor=#1ba1e2;top=0;left=0;bottom=0;right=0;align=left;spacingLeft=6;overflow=hidden;whiteSpace=wrap;html=1;fontFamily=Verdana;fontSize=12;labelBackgroundColor=none;strokeColor=#006EAF;fontColor=#ffffff;shadow=0;swimlaneLine=1;fixDash=0;" parent="YAL7oIk_EPzpiQccKfd0-28" vertex="1">
          <mxGeometry x="30" width="150" height="30" as="geometry">
            <mxRectangle width="150" height="30" as="alternateBounds" />
          </mxGeometry>
        </mxCell>
        <mxCell id="YAL7oIk_EPzpiQccKfd0-31" value="Position" style="shape=table;startSize=30;container=1;collapsible=1;childLayout=tableLayout;fixedRows=1;rowLines=0;fontStyle=1;align=center;resizeLast=1;html=1;fontFamily=Verdana;fontSize=12;labelBackgroundColor=none;fillColor=#1ba1e2;strokeColor=#006EAF;fontColor=#ffffff;shadow=0;swimlaneLine=1;fixDash=0;" parent="1" vertex="1">
          <mxGeometry x="210" y="200" width="180" height="90" as="geometry" />
        </mxCell>
        <mxCell id="YAL7oIk_EPzpiQccKfd0-32" value="" style="shape=tableRow;horizontal=0;startSize=0;swimlaneHead=0;swimlaneBody=0;fillColor=#1ba1e2;collapsible=0;dropTarget=0;points=[[0,0.5],[1,0.5]];portConstraint=eastwest;top=0;left=0;right=0;bottom=1;fontFamily=Verdana;fontSize=12;labelBackgroundColor=none;strokeColor=#006EAF;fontColor=#ffffff;shadow=0;swimlaneLine=1;fixDash=0;" parent="YAL7oIk_EPzpiQccKfd0-31" vertex="1">
          <mxGeometry y="30" width="180" height="30" as="geometry" />
        </mxCell>
        <mxCell id="YAL7oIk_EPzpiQccKfd0-33" value="PK" style="shape=partialRectangle;connectable=0;fillColor=#1ba1e2;top=0;left=0;bottom=0;right=0;fontStyle=1;overflow=hidden;whiteSpace=wrap;html=1;fontFamily=Verdana;fontSize=12;labelBackgroundColor=none;strokeColor=#006EAF;fontColor=#ffffff;shadow=0;swimlaneLine=1;fixDash=0;" parent="YAL7oIk_EPzpiQccKfd0-32" vertex="1">
          <mxGeometry width="30" height="30" as="geometry">
            <mxRectangle width="30" height="30" as="alternateBounds" />
          </mxGeometry>
        </mxCell>
        <mxCell id="YAL7oIk_EPzpiQccKfd0-34" value="id" style="shape=partialRectangle;connectable=0;fillColor=#1ba1e2;top=0;left=0;bottom=0;right=0;align=left;spacingLeft=6;fontStyle=5;overflow=hidden;whiteSpace=wrap;html=1;fontFamily=Verdana;fontSize=12;labelBackgroundColor=none;strokeColor=#006EAF;fontColor=#ffffff;shadow=0;swimlaneLine=1;fixDash=0;" parent="YAL7oIk_EPzpiQccKfd0-32" vertex="1">
          <mxGeometry x="30" width="150" height="30" as="geometry">
            <mxRectangle width="150" height="30" as="alternateBounds" />
          </mxGeometry>
        </mxCell>
        <mxCell id="YAL7oIk_EPzpiQccKfd0-35" value="" style="shape=tableRow;horizontal=0;startSize=0;swimlaneHead=0;swimlaneBody=0;fillColor=#1ba1e2;collapsible=0;dropTarget=0;points=[[0,0.5],[1,0.5]];portConstraint=eastwest;top=0;left=0;right=0;bottom=0;fontFamily=Verdana;fontSize=12;labelBackgroundColor=none;strokeColor=#006EAF;fontColor=#ffffff;shadow=0;swimlaneLine=1;fixDash=0;" parent="YAL7oIk_EPzpiQccKfd0-31" vertex="1">
          <mxGeometry y="60" width="180" height="30" as="geometry" />
        </mxCell>
        <mxCell id="YAL7oIk_EPzpiQccKfd0-36" value="" style="shape=partialRectangle;connectable=0;fillColor=#1ba1e2;top=0;left=0;bottom=0;right=0;editable=1;overflow=hidden;whiteSpace=wrap;html=1;fontFamily=Verdana;fontSize=12;labelBackgroundColor=none;strokeColor=#006EAF;fontColor=#ffffff;shadow=0;swimlaneLine=1;fixDash=0;" parent="YAL7oIk_EPzpiQccKfd0-35" vertex="1">
          <mxGeometry width="30" height="30" as="geometry">
            <mxRectangle width="30" height="30" as="alternateBounds" />
          </mxGeometry>
        </mxCell>
        <mxCell id="YAL7oIk_EPzpiQccKfd0-37" value="name" style="shape=partialRectangle;connectable=0;fillColor=#1ba1e2;top=0;left=0;bottom=0;right=0;align=left;spacingLeft=6;overflow=hidden;whiteSpace=wrap;html=1;fontFamily=Verdana;fontSize=12;labelBackgroundColor=none;strokeColor=#006EAF;fontColor=#ffffff;shadow=0;swimlaneLine=1;fixDash=0;" parent="YAL7oIk_EPzpiQccKfd0-35" vertex="1">
          <mxGeometry x="30" width="150" height="30" as="geometry">
            <mxRectangle width="150" height="30" as="alternateBounds" />
          </mxGeometry>
        </mxCell>
        <mxCell id="YAL7oIk_EPzpiQccKfd0-45" style="edgeStyle=orthogonalEdgeStyle;rounded=0;orthogonalLoop=1;jettySize=auto;html=1;exitX=1;exitY=0.5;exitDx=0;exitDy=0;entryX=0;entryY=0.5;entryDx=0;entryDy=0;endArrow=ERmandOne;endFill=0;startArrow=ERmany;startFill=0;fontFamily=Verdana;fontSize=12;labelBackgroundColor=none;fillColor=#1ba1e2;strokeColor=#006EAF;shadow=0;swimlaneLine=1;fixDash=0;" parent="1" source="YAL7oIk_EPzpiQccKfd0-15" target="YAL7oIk_EPzpiQccKfd0-32" edge="1">
          <mxGeometry relative="1" as="geometry" />
        </mxCell>
        <mxCell id="YAL7oIk_EPzpiQccKfd0-46" value="Agency" style="shape=table;startSize=30;container=1;collapsible=1;childLayout=tableLayout;fixedRows=1;rowLines=0;fontStyle=1;align=center;resizeLast=1;html=1;fontFamily=Verdana;fontSize=12;labelBackgroundColor=none;fillColor=#1ba1e2;strokeColor=#006EAF;fontColor=#ffffff;shadow=0;swimlaneLine=1;fixDash=0;" parent="1" vertex="1">
          <mxGeometry x="210" y="40" width="180" height="90" as="geometry">
            <mxRectangle x="260" y="150" width="80" height="30" as="alternateBounds" />
          </mxGeometry>
        </mxCell>
        <mxCell id="YAL7oIk_EPzpiQccKfd0-47" value="" style="shape=tableRow;horizontal=0;startSize=0;swimlaneHead=0;swimlaneBody=0;fillColor=#1ba1e2;collapsible=0;dropTarget=0;points=[[0,0.5],[1,0.5]];portConstraint=eastwest;top=0;left=0;right=0;bottom=1;fontFamily=Verdana;fontSize=12;labelBackgroundColor=none;strokeColor=#006EAF;fontColor=#ffffff;shadow=0;swimlaneLine=1;fixDash=0;" parent="YAL7oIk_EPzpiQccKfd0-46" vertex="1">
          <mxGeometry y="30" width="180" height="30" as="geometry" />
        </mxCell>
        <mxCell id="YAL7oIk_EPzpiQccKfd0-48" value="PK" style="shape=partialRectangle;connectable=0;fillColor=#1ba1e2;top=0;left=0;bottom=0;right=0;fontStyle=1;overflow=hidden;whiteSpace=wrap;html=1;fontFamily=Verdana;fontSize=12;labelBackgroundColor=none;strokeColor=#006EAF;fontColor=#ffffff;shadow=0;swimlaneLine=1;fixDash=0;" parent="YAL7oIk_EPzpiQccKfd0-47" vertex="1">
          <mxGeometry width="30" height="30" as="geometry">
            <mxRectangle width="30" height="30" as="alternateBounds" />
          </mxGeometry>
        </mxCell>
        <mxCell id="YAL7oIk_EPzpiQccKfd0-49" value="id" style="shape=partialRectangle;connectable=0;fillColor=#1ba1e2;top=0;left=0;bottom=0;right=0;align=left;spacingLeft=6;fontStyle=5;overflow=hidden;whiteSpace=wrap;html=1;fontFamily=Verdana;fontSize=12;labelBackgroundColor=none;strokeColor=#006EAF;fontColor=#ffffff;shadow=0;swimlaneLine=1;fixDash=0;" parent="YAL7oIk_EPzpiQccKfd0-47" vertex="1">
          <mxGeometry x="30" width="150" height="30" as="geometry">
            <mxRectangle width="150" height="30" as="alternateBounds" />
          </mxGeometry>
        </mxCell>
        <mxCell id="YAL7oIk_EPzpiQccKfd0-50" value="" style="shape=tableRow;horizontal=0;startSize=0;swimlaneHead=0;swimlaneBody=0;fillColor=#1ba1e2;collapsible=0;dropTarget=0;points=[[0,0.5],[1,0.5]];portConstraint=eastwest;top=0;left=0;right=0;bottom=0;fontFamily=Verdana;fontSize=12;labelBackgroundColor=none;strokeColor=#006EAF;fontColor=#ffffff;shadow=0;swimlaneLine=1;fixDash=0;" parent="YAL7oIk_EPzpiQccKfd0-46" vertex="1">
          <mxGeometry y="60" width="180" height="30" as="geometry" />
        </mxCell>
        <mxCell id="YAL7oIk_EPzpiQccKfd0-51" value="" style="shape=partialRectangle;connectable=0;fillColor=#1ba1e2;top=0;left=0;bottom=0;right=0;editable=1;overflow=hidden;whiteSpace=wrap;html=1;fontFamily=Verdana;fontSize=12;labelBackgroundColor=none;strokeColor=#006EAF;fontColor=#ffffff;shadow=0;swimlaneLine=1;fixDash=0;" parent="YAL7oIk_EPzpiQccKfd0-50" vertex="1">
          <mxGeometry width="30" height="30" as="geometry">
            <mxRectangle width="30" height="30" as="alternateBounds" />
          </mxGeometry>
        </mxCell>
        <mxCell id="YAL7oIk_EPzpiQccKfd0-52" value="name" style="shape=partialRectangle;connectable=0;fillColor=#1ba1e2;top=0;left=0;bottom=0;right=0;align=left;spacingLeft=6;overflow=hidden;whiteSpace=wrap;html=1;fontFamily=Verdana;fontSize=12;labelBackgroundColor=none;strokeColor=#006EAF;fontColor=#ffffff;shadow=0;swimlaneLine=1;fixDash=0;" parent="YAL7oIk_EPzpiQccKfd0-50" vertex="1">
          <mxGeometry x="30" width="150" height="30" as="geometry">
            <mxRectangle width="150" height="30" as="alternateBounds" />
          </mxGeometry>
        </mxCell>
        <mxCell id="YAL7oIk_EPzpiQccKfd0-59" style="edgeStyle=orthogonalEdgeStyle;rounded=0;orthogonalLoop=1;jettySize=auto;html=1;exitX=1;exitY=0.5;exitDx=0;exitDy=0;startArrow=ERmany;startFill=0;endArrow=ERmandOne;endFill=0;fontFamily=Verdana;fontSize=12;labelBackgroundColor=none;fillColor=#1ba1e2;strokeColor=#006EAF;shadow=0;swimlaneLine=1;fixDash=0;" parent="1" source="YAL7oIk_EPzpiQccKfd0-12" target="YAL7oIk_EPzpiQccKfd0-47" edge="1">
          <mxGeometry relative="1" as="geometry" />
        </mxCell>
        <mxCell id="YAL7oIk_EPzpiQccKfd0-60" value="Appearance" style="shape=table;startSize=30;container=1;collapsible=1;childLayout=tableLayout;fixedRows=1;rowLines=0;fontStyle=1;align=center;resizeLast=1;html=1;fontFamily=Verdana;fontSize=12;labelBackgroundColor=none;fillColor=#1ba1e2;strokeColor=#006EAF;fontColor=#ffffff;shadow=0;swimlaneLine=1;fixDash=0;" parent="1" vertex="1">
          <mxGeometry x="-360" y="110" width="180" height="240" as="geometry" />
        </mxCell>
        <mxCell id="YAL7oIk_EPzpiQccKfd0-61" value="" style="shape=tableRow;horizontal=0;startSize=0;swimlaneHead=0;swimlaneBody=0;fillColor=#1ba1e2;collapsible=0;dropTarget=0;points=[[0,0.5],[1,0.5]];portConstraint=eastwest;top=0;left=0;right=0;bottom=1;fontFamily=Verdana;fontSize=12;labelBackgroundColor=none;strokeColor=#006EAF;fontColor=#ffffff;shadow=0;swimlaneLine=1;fixDash=0;" parent="YAL7oIk_EPzpiQccKfd0-60" vertex="1">
          <mxGeometry y="30" width="180" height="30" as="geometry" />
        </mxCell>
        <mxCell id="YAL7oIk_EPzpiQccKfd0-62" value="PK" style="shape=partialRectangle;connectable=0;fillColor=#1ba1e2;top=0;left=0;bottom=0;right=0;fontStyle=1;overflow=hidden;whiteSpace=wrap;html=1;fontFamily=Verdana;fontSize=12;labelBackgroundColor=none;strokeColor=#006EAF;fontColor=#ffffff;shadow=0;swimlaneLine=1;fixDash=0;" parent="YAL7oIk_EPzpiQccKfd0-61" vertex="1">
          <mxGeometry width="30" height="30" as="geometry">
            <mxRectangle width="30" height="30" as="alternateBounds" />
          </mxGeometry>
        </mxCell>
        <mxCell id="YAL7oIk_EPzpiQccKfd0-63" value="app_id" style="shape=partialRectangle;connectable=0;fillColor=#1ba1e2;top=0;left=0;bottom=0;right=0;align=left;spacingLeft=6;fontStyle=5;overflow=hidden;whiteSpace=wrap;html=1;fontFamily=Verdana;fontSize=12;labelBackgroundColor=none;strokeColor=#006EAF;fontColor=#ffffff;shadow=0;swimlaneLine=1;fixDash=0;" parent="YAL7oIk_EPzpiQccKfd0-61" vertex="1">
          <mxGeometry x="30" width="150" height="30" as="geometry">
            <mxRectangle width="150" height="30" as="alternateBounds" />
          </mxGeometry>
        </mxCell>
        <mxCell id="YAL7oIk_EPzpiQccKfd0-64" value="" style="shape=tableRow;horizontal=0;startSize=0;swimlaneHead=0;swimlaneBody=0;fillColor=#1ba1e2;collapsible=0;dropTarget=0;points=[[0,0.5],[1,0.5]];portConstraint=eastwest;top=0;left=0;right=0;bottom=0;fontFamily=Verdana;fontSize=12;labelBackgroundColor=none;strokeColor=#006EAF;fontColor=#ffffff;shadow=0;swimlaneLine=1;fixDash=0;" parent="YAL7oIk_EPzpiQccKfd0-60" vertex="1">
          <mxGeometry y="60" width="180" height="30" as="geometry" />
        </mxCell>
        <mxCell id="YAL7oIk_EPzpiQccKfd0-65" value="FK" style="shape=partialRectangle;connectable=0;fillColor=#1ba1e2;top=0;left=0;bottom=0;right=0;editable=1;overflow=hidden;whiteSpace=wrap;html=1;fontFamily=Verdana;fontSize=12;labelBackgroundColor=none;strokeColor=#006EAF;fontColor=#ffffff;shadow=0;swimlaneLine=1;fixDash=0;fontStyle=1" parent="YAL7oIk_EPzpiQccKfd0-64" vertex="1">
          <mxGeometry width="30" height="30" as="geometry">
            <mxRectangle width="30" height="30" as="alternateBounds" />
          </mxGeometry>
        </mxCell>
        <mxCell id="YAL7oIk_EPzpiQccKfd0-66" value="visitor" style="shape=partialRectangle;connectable=0;fillColor=#1ba1e2;top=0;left=0;bottom=0;right=0;align=left;spacingLeft=6;overflow=hidden;whiteSpace=wrap;html=1;fontFamily=Verdana;fontSize=12;labelBackgroundColor=none;strokeColor=#006EAF;fontColor=#ffffff;shadow=0;swimlaneLine=1;fixDash=0;" parent="YAL7oIk_EPzpiQccKfd0-64" vertex="1">
          <mxGeometry x="30" width="150" height="30" as="geometry">
            <mxRectangle width="150" height="30" as="alternateBounds" />
          </mxGeometry>
        </mxCell>
        <mxCell id="YAL7oIk_EPzpiQccKfd0-70" value="" style="shape=tableRow;horizontal=0;startSize=0;swimlaneHead=0;swimlaneBody=0;fillColor=#1ba1e2;collapsible=0;dropTarget=0;points=[[0,0.5],[1,0.5]];portConstraint=eastwest;top=0;left=0;right=0;bottom=0;fontFamily=Verdana;fontSize=12;labelBackgroundColor=none;strokeColor=#006EAF;fontColor=#ffffff;shadow=0;swimlaneLine=1;fixDash=0;" parent="YAL7oIk_EPzpiQccKfd0-60" vertex="1">
          <mxGeometry y="90" width="180" height="30" as="geometry" />
        </mxCell>
        <mxCell id="YAL7oIk_EPzpiQccKfd0-71" value="&lt;b&gt;FK&lt;/b&gt;" style="shape=partialRectangle;connectable=0;fillColor=#1ba1e2;top=0;left=0;bottom=0;right=0;editable=1;overflow=hidden;whiteSpace=wrap;html=1;fontFamily=Verdana;fontSize=12;labelBackgroundColor=none;strokeColor=#006EAF;fontColor=#ffffff;shadow=0;swimlaneLine=1;fixDash=0;" parent="YAL7oIk_EPzpiQccKfd0-70" vertex="1">
          <mxGeometry width="30" height="30" as="geometry">
            <mxRectangle width="30" height="30" as="alternateBounds" />
          </mxGeometry>
        </mxCell>
        <mxCell id="YAL7oIk_EPzpiQccKfd0-72" value="purpose" style="shape=partialRectangle;connectable=0;fillColor=#1ba1e2;top=0;left=0;bottom=0;right=0;align=left;spacingLeft=6;overflow=hidden;whiteSpace=wrap;html=1;fontFamily=Verdana;fontSize=12;labelBackgroundColor=none;strokeColor=#006EAF;fontColor=#ffffff;shadow=0;swimlaneLine=1;fixDash=0;" parent="YAL7oIk_EPzpiQccKfd0-70" vertex="1">
          <mxGeometry x="30" width="150" height="30" as="geometry">
            <mxRectangle width="150" height="30" as="alternateBounds" />
          </mxGeometry>
        </mxCell>
        <mxCell id="YAL7oIk_EPzpiQccKfd0-94" style="shape=tableRow;horizontal=0;startSize=0;swimlaneHead=0;swimlaneBody=0;fillColor=#1ba1e2;collapsible=0;dropTarget=0;points=[[0,0.5],[1,0.5]];portConstraint=eastwest;top=0;left=0;right=0;bottom=0;fontFamily=Verdana;fontSize=12;labelBackgroundColor=none;strokeColor=#006EAF;fontColor=#ffffff;shadow=0;swimlaneLine=1;fixDash=0;" parent="YAL7oIk_EPzpiQccKfd0-60" vertex="1">
          <mxGeometry y="120" width="180" height="30" as="geometry" />
        </mxCell>
        <mxCell id="YAL7oIk_EPzpiQccKfd0-95" style="shape=partialRectangle;connectable=0;fillColor=#1ba1e2;top=0;left=0;bottom=0;right=0;editable=1;overflow=hidden;whiteSpace=wrap;html=1;fontFamily=Verdana;fontSize=12;labelBackgroundColor=none;strokeColor=#006EAF;fontColor=#ffffff;shadow=0;swimlaneLine=1;fixDash=0;" parent="YAL7oIk_EPzpiQccKfd0-94" vertex="1">
          <mxGeometry width="30" height="30" as="geometry">
            <mxRectangle width="30" height="30" as="alternateBounds" />
          </mxGeometry>
        </mxCell>
        <mxCell id="YAL7oIk_EPzpiQccKfd0-96" value="date_issued" style="shape=partialRectangle;connectable=0;fillColor=#1ba1e2;top=0;left=0;bottom=0;right=0;align=left;spacingLeft=6;overflow=hidden;whiteSpace=wrap;html=1;fontFamily=Verdana;fontSize=12;labelBackgroundColor=none;strokeColor=#006EAF;fontColor=#ffffff;shadow=0;swimlaneLine=1;fixDash=0;" parent="YAL7oIk_EPzpiQccKfd0-94" vertex="1">
          <mxGeometry x="30" width="150" height="30" as="geometry">
            <mxRectangle width="150" height="30" as="alternateBounds" />
          </mxGeometry>
        </mxCell>
        <mxCell id="YAL7oIk_EPzpiQccKfd0-97" style="shape=tableRow;horizontal=0;startSize=0;swimlaneHead=0;swimlaneBody=0;fillColor=#1ba1e2;collapsible=0;dropTarget=0;points=[[0,0.5],[1,0.5]];portConstraint=eastwest;top=0;left=0;right=0;bottom=0;fontFamily=Verdana;fontSize=12;labelBackgroundColor=none;strokeColor=#006EAF;fontColor=#ffffff;shadow=0;swimlaneLine=1;fixDash=0;" parent="YAL7oIk_EPzpiQccKfd0-60" vertex="1">
          <mxGeometry y="150" width="180" height="30" as="geometry" />
        </mxCell>
        <mxCell id="YAL7oIk_EPzpiQccKfd0-98" style="shape=partialRectangle;connectable=0;fillColor=#1ba1e2;top=0;left=0;bottom=0;right=0;editable=1;overflow=hidden;whiteSpace=wrap;html=1;fontFamily=Verdana;fontSize=12;labelBackgroundColor=none;strokeColor=#006EAF;fontColor=#ffffff;shadow=0;swimlaneLine=1;fixDash=0;" parent="YAL7oIk_EPzpiQccKfd0-97" vertex="1">
          <mxGeometry width="30" height="30" as="geometry">
            <mxRectangle width="30" height="30" as="alternateBounds" />
          </mxGeometry>
        </mxCell>
        <mxCell id="YAL7oIk_EPzpiQccKfd0-99" value="date_from" style="shape=partialRectangle;connectable=0;fillColor=#1ba1e2;top=0;left=0;bottom=0;right=0;align=left;spacingLeft=6;overflow=hidden;whiteSpace=wrap;html=1;fontFamily=Verdana;fontSize=12;labelBackgroundColor=none;strokeColor=#006EAF;fontColor=#ffffff;shadow=0;swimlaneLine=1;fixDash=0;" parent="YAL7oIk_EPzpiQccKfd0-97" vertex="1">
          <mxGeometry x="30" width="150" height="30" as="geometry">
            <mxRectangle width="150" height="30" as="alternateBounds" />
          </mxGeometry>
        </mxCell>
        <mxCell id="L8oZhsjAH56l40ewtVsf-1" style="shape=tableRow;horizontal=0;startSize=0;swimlaneHead=0;swimlaneBody=0;fillColor=#1ba1e2;collapsible=0;dropTarget=0;points=[[0,0.5],[1,0.5]];portConstraint=eastwest;top=0;left=0;right=0;bottom=0;fontFamily=Verdana;fontSize=12;labelBackgroundColor=none;strokeColor=#006EAF;fontColor=#ffffff;shadow=0;swimlaneLine=1;fixDash=0;" parent="YAL7oIk_EPzpiQccKfd0-60" vertex="1">
          <mxGeometry y="180" width="180" height="30" as="geometry" />
        </mxCell>
        <mxCell id="L8oZhsjAH56l40ewtVsf-2" style="shape=partialRectangle;connectable=0;fillColor=#1ba1e2;top=0;left=0;bottom=0;right=0;editable=1;overflow=hidden;whiteSpace=wrap;html=1;fontFamily=Verdana;fontSize=12;labelBackgroundColor=none;strokeColor=#006EAF;fontColor=#ffffff;shadow=0;swimlaneLine=1;fixDash=0;" parent="L8oZhsjAH56l40ewtVsf-1" vertex="1">
          <mxGeometry width="30" height="30" as="geometry">
            <mxRectangle width="30" height="30" as="alternateBounds" />
          </mxGeometry>
        </mxCell>
        <mxCell id="L8oZhsjAH56l40ewtVsf-3" value="date_to" style="shape=partialRectangle;connectable=0;fillColor=#1ba1e2;top=0;left=0;bottom=0;right=0;align=left;spacingLeft=6;overflow=hidden;whiteSpace=wrap;html=1;fontFamily=Verdana;fontSize=12;labelBackgroundColor=none;strokeColor=#006EAF;fontColor=#ffffff;shadow=0;swimlaneLine=1;fixDash=0;" parent="L8oZhsjAH56l40ewtVsf-1" vertex="1">
          <mxGeometry x="30" width="150" height="30" as="geometry">
            <mxRectangle width="150" height="30" as="alternateBounds" />
          </mxGeometry>
        </mxCell>
        <mxCell id="GEG_1owZUJ-PFaaz2wRq-1" style="shape=tableRow;horizontal=0;startSize=0;swimlaneHead=0;swimlaneBody=0;fillColor=#1ba1e2;collapsible=0;dropTarget=0;points=[[0,0.5],[1,0.5]];portConstraint=eastwest;top=0;left=0;right=0;bottom=0;fontFamily=Verdana;fontSize=12;labelBackgroundColor=none;strokeColor=#006EAF;fontColor=#ffffff;shadow=0;swimlaneLine=1;fixDash=0;" vertex="1" parent="YAL7oIk_EPzpiQccKfd0-60">
          <mxGeometry y="210" width="180" height="30" as="geometry" />
        </mxCell>
        <mxCell id="GEG_1owZUJ-PFaaz2wRq-2" style="shape=partialRectangle;connectable=0;fillColor=#1ba1e2;top=0;left=0;bottom=0;right=0;editable=1;overflow=hidden;whiteSpace=wrap;html=1;fontFamily=Verdana;fontSize=12;labelBackgroundColor=none;strokeColor=#006EAF;fontColor=#ffffff;shadow=0;swimlaneLine=1;fixDash=0;" vertex="1" parent="GEG_1owZUJ-PFaaz2wRq-1">
          <mxGeometry width="30" height="30" as="geometry">
            <mxRectangle width="30" height="30" as="alternateBounds" />
          </mxGeometry>
        </mxCell>
        <mxCell id="GEG_1owZUJ-PFaaz2wRq-3" value="reference_no" style="shape=partialRectangle;connectable=0;fillColor=#1ba1e2;top=0;left=0;bottom=0;right=0;align=left;spacingLeft=6;overflow=hidden;whiteSpace=wrap;html=1;fontFamily=Verdana;fontSize=12;labelBackgroundColor=none;strokeColor=#006EAF;fontColor=#ffffff;shadow=0;swimlaneLine=1;fixDash=0;" vertex="1" parent="GEG_1owZUJ-PFaaz2wRq-1">
          <mxGeometry x="30" width="150" height="30" as="geometry">
            <mxRectangle width="150" height="30" as="alternateBounds" />
          </mxGeometry>
        </mxCell>
        <mxCell id="YAL7oIk_EPzpiQccKfd0-86" style="edgeStyle=orthogonalEdgeStyle;rounded=0;orthogonalLoop=1;jettySize=auto;html=1;exitX=1;exitY=0.5;exitDx=0;exitDy=0;entryX=0;entryY=0.5;entryDx=0;entryDy=0;endArrow=ERmany;endFill=0;startArrow=ERoneToMany;startFill=0;" parent="1" edge="1">
          <mxGeometry relative="1" as="geometry">
            <mxPoint x="460" y="95" as="targetPoint" />
          </mxGeometry>
        </mxCell>
        <mxCell id="YAL7oIk_EPzpiQccKfd0-87" value="Purpose" style="shape=table;startSize=30;container=1;collapsible=1;childLayout=tableLayout;fixedRows=1;rowLines=0;fontStyle=1;align=center;resizeLast=1;html=1;fontFamily=Verdana;fontSize=12;labelBackgroundColor=none;fillColor=#1ba1e2;strokeColor=#006EAF;fontColor=#ffffff;shadow=0;swimlaneLine=1;fixDash=0;" parent="1" vertex="1">
          <mxGeometry x="-20" y="300" width="180" height="90" as="geometry">
            <mxRectangle x="260" y="150" width="80" height="30" as="alternateBounds" />
          </mxGeometry>
        </mxCell>
        <mxCell id="YAL7oIk_EPzpiQccKfd0-88" value="" style="shape=tableRow;horizontal=0;startSize=0;swimlaneHead=0;swimlaneBody=0;fillColor=#1ba1e2;collapsible=0;dropTarget=0;points=[[0,0.5],[1,0.5]];portConstraint=eastwest;top=0;left=0;right=0;bottom=1;fontFamily=Verdana;fontSize=12;labelBackgroundColor=none;strokeColor=#006EAF;fontColor=#ffffff;shadow=0;swimlaneLine=1;fixDash=0;" parent="YAL7oIk_EPzpiQccKfd0-87" vertex="1">
          <mxGeometry y="30" width="180" height="30" as="geometry" />
        </mxCell>
        <mxCell id="YAL7oIk_EPzpiQccKfd0-89" value="PK" style="shape=partialRectangle;connectable=0;fillColor=#1ba1e2;top=0;left=0;bottom=0;right=0;fontStyle=1;overflow=hidden;whiteSpace=wrap;html=1;fontFamily=Verdana;fontSize=12;labelBackgroundColor=none;strokeColor=#006EAF;fontColor=#ffffff;shadow=0;swimlaneLine=1;fixDash=0;" parent="YAL7oIk_EPzpiQccKfd0-88" vertex="1">
          <mxGeometry width="30" height="30" as="geometry">
            <mxRectangle width="30" height="30" as="alternateBounds" />
          </mxGeometry>
        </mxCell>
        <mxCell id="YAL7oIk_EPzpiQccKfd0-90" value="id" style="shape=partialRectangle;connectable=0;fillColor=#1ba1e2;top=0;left=0;bottom=0;right=0;align=left;spacingLeft=6;fontStyle=5;overflow=hidden;whiteSpace=wrap;html=1;fontFamily=Verdana;fontSize=12;labelBackgroundColor=none;strokeColor=#006EAF;fontColor=#ffffff;shadow=0;swimlaneLine=1;fixDash=0;" parent="YAL7oIk_EPzpiQccKfd0-88" vertex="1">
          <mxGeometry x="30" width="150" height="30" as="geometry">
            <mxRectangle width="150" height="30" as="alternateBounds" />
          </mxGeometry>
        </mxCell>
        <mxCell id="YAL7oIk_EPzpiQccKfd0-91" value="" style="shape=tableRow;horizontal=0;startSize=0;swimlaneHead=0;swimlaneBody=0;fillColor=#1ba1e2;collapsible=0;dropTarget=0;points=[[0,0.5],[1,0.5]];portConstraint=eastwest;top=0;left=0;right=0;bottom=0;fontFamily=Verdana;fontSize=12;labelBackgroundColor=none;strokeColor=#006EAF;fontColor=#ffffff;shadow=0;swimlaneLine=1;fixDash=0;" parent="YAL7oIk_EPzpiQccKfd0-87" vertex="1">
          <mxGeometry y="60" width="180" height="30" as="geometry" />
        </mxCell>
        <mxCell id="YAL7oIk_EPzpiQccKfd0-92" value="" style="shape=partialRectangle;connectable=0;fillColor=#1ba1e2;top=0;left=0;bottom=0;right=0;editable=1;overflow=hidden;whiteSpace=wrap;html=1;fontFamily=Verdana;fontSize=12;labelBackgroundColor=none;strokeColor=#006EAF;fontColor=#ffffff;shadow=0;swimlaneLine=1;fixDash=0;" parent="YAL7oIk_EPzpiQccKfd0-91" vertex="1">
          <mxGeometry width="30" height="30" as="geometry">
            <mxRectangle width="30" height="30" as="alternateBounds" />
          </mxGeometry>
        </mxCell>
        <mxCell id="YAL7oIk_EPzpiQccKfd0-93" value="purpose" style="shape=partialRectangle;connectable=0;fillColor=#1ba1e2;top=0;left=0;bottom=0;right=0;align=left;spacingLeft=6;overflow=hidden;whiteSpace=wrap;html=1;fontFamily=Verdana;fontSize=12;labelBackgroundColor=none;strokeColor=#006EAF;fontColor=#ffffff;shadow=0;swimlaneLine=1;fixDash=0;" parent="YAL7oIk_EPzpiQccKfd0-91" vertex="1">
          <mxGeometry x="30" width="150" height="30" as="geometry">
            <mxRectangle width="150" height="30" as="alternateBounds" />
          </mxGeometry>
        </mxCell>
        <mxCell id="YAL7oIk_EPzpiQccKfd0-100" style="edgeStyle=orthogonalEdgeStyle;rounded=0;orthogonalLoop=1;jettySize=auto;html=1;exitX=0;exitY=0.5;exitDx=0;exitDy=0;entryX=1;entryY=0.5;entryDx=0;entryDy=0;endArrow=ERmany;endFill=0;startArrow=ERoneToMany;startFill=0;fontFamily=Verdana;fontSize=12;labelBackgroundColor=none;fillColor=#1ba1e2;strokeColor=#006EAF;shadow=0;swimlaneLine=1;fixDash=0;" parent="1" source="YAL7oIk_EPzpiQccKfd0-6" target="YAL7oIk_EPzpiQccKfd0-64" edge="1">
          <mxGeometry relative="1" as="geometry" />
        </mxCell>
        <mxCell id="YAL7oIk_EPzpiQccKfd0-101" style="edgeStyle=orthogonalEdgeStyle;rounded=0;orthogonalLoop=1;jettySize=auto;html=1;exitX=0;exitY=0.5;exitDx=0;exitDy=0;entryX=1;entryY=0.5;entryDx=0;entryDy=0;startArrow=ERmandOne;startFill=0;endArrow=ERoneToMany;endFill=0;fontFamily=Verdana;fontSize=12;labelBackgroundColor=none;fillColor=#1ba1e2;strokeColor=#006EAF;shadow=0;swimlaneLine=1;fixDash=0;" parent="1" source="YAL7oIk_EPzpiQccKfd0-88" target="YAL7oIk_EPzpiQccKfd0-70" edge="1">
          <mxGeometry relative="1" as="geometry" />
        </mxCell>
        <mxCell id="GEG_1owZUJ-PFaaz2wRq-7" value="Place" style="shape=table;startSize=30;container=1;collapsible=1;childLayout=tableLayout;fixedRows=1;rowLines=0;fontStyle=1;align=center;resizeLast=1;html=1;fontFamily=Verdana;fontSize=12;labelBackgroundColor=none;fillColor=#1ba1e2;strokeColor=#006EAF;fontColor=#ffffff;shadow=0;swimlaneLine=1;fixDash=0;" vertex="1" parent="1">
          <mxGeometry x="740" y="40" width="180" height="180" as="geometry">
            <mxRectangle x="260" y="150" width="80" height="30" as="alternateBounds" />
          </mxGeometry>
        </mxCell>
        <mxCell id="GEG_1owZUJ-PFaaz2wRq-8" value="" style="shape=tableRow;horizontal=0;startSize=0;swimlaneHead=0;swimlaneBody=0;fillColor=#1ba1e2;collapsible=0;dropTarget=0;points=[[0,0.5],[1,0.5]];portConstraint=eastwest;top=0;left=0;right=0;bottom=1;fontFamily=Verdana;fontSize=12;labelBackgroundColor=none;strokeColor=#006EAF;fontColor=#ffffff;shadow=0;swimlaneLine=1;fixDash=0;" vertex="1" parent="GEG_1owZUJ-PFaaz2wRq-7">
          <mxGeometry y="30" width="180" height="30" as="geometry" />
        </mxCell>
        <mxCell id="GEG_1owZUJ-PFaaz2wRq-9" value="PK" style="shape=partialRectangle;connectable=0;fillColor=#1ba1e2;top=0;left=0;bottom=0;right=0;fontStyle=1;overflow=hidden;whiteSpace=wrap;html=1;fontFamily=Verdana;fontSize=12;labelBackgroundColor=none;strokeColor=#006EAF;fontColor=#ffffff;shadow=0;swimlaneLine=1;fixDash=0;" vertex="1" parent="GEG_1owZUJ-PFaaz2wRq-8">
          <mxGeometry width="30" height="30" as="geometry">
            <mxRectangle width="30" height="30" as="alternateBounds" />
          </mxGeometry>
        </mxCell>
        <mxCell id="GEG_1owZUJ-PFaaz2wRq-10" value="id" style="shape=partialRectangle;connectable=0;fillColor=#1ba1e2;top=0;left=0;bottom=0;right=0;align=left;spacingLeft=6;fontStyle=5;overflow=hidden;whiteSpace=wrap;html=1;fontFamily=Verdana;fontSize=12;labelBackgroundColor=none;strokeColor=#006EAF;fontColor=#ffffff;shadow=0;swimlaneLine=1;fixDash=0;" vertex="1" parent="GEG_1owZUJ-PFaaz2wRq-8">
          <mxGeometry x="30" width="150" height="30" as="geometry">
            <mxRectangle width="150" height="30" as="alternateBounds" />
          </mxGeometry>
        </mxCell>
        <mxCell id="GEG_1owZUJ-PFaaz2wRq-11" value="" style="shape=tableRow;horizontal=0;startSize=0;swimlaneHead=0;swimlaneBody=0;fillColor=#1ba1e2;collapsible=0;dropTarget=0;points=[[0,0.5],[1,0.5]];portConstraint=eastwest;top=0;left=0;right=0;bottom=0;fontFamily=Verdana;fontSize=12;labelBackgroundColor=none;strokeColor=#006EAF;fontColor=#ffffff;shadow=0;swimlaneLine=1;fixDash=0;" vertex="1" parent="GEG_1owZUJ-PFaaz2wRq-7">
          <mxGeometry y="60" width="180" height="30" as="geometry" />
        </mxCell>
        <mxCell id="GEG_1owZUJ-PFaaz2wRq-12" value="FK" style="shape=partialRectangle;connectable=0;fillColor=#1ba1e2;top=0;left=0;bottom=0;right=0;editable=1;overflow=hidden;whiteSpace=wrap;html=1;fontFamily=Verdana;fontSize=12;labelBackgroundColor=none;strokeColor=#006EAF;fontColor=#ffffff;shadow=0;swimlaneLine=1;fixDash=0;fontStyle=1" vertex="1" parent="GEG_1owZUJ-PFaaz2wRq-11">
          <mxGeometry width="30" height="30" as="geometry">
            <mxRectangle width="30" height="30" as="alternateBounds" />
          </mxGeometry>
        </mxCell>
        <mxCell id="GEG_1owZUJ-PFaaz2wRq-13" value="barangay" style="shape=partialRectangle;connectable=0;fillColor=#1ba1e2;top=0;left=0;bottom=0;right=0;align=left;spacingLeft=6;overflow=hidden;whiteSpace=wrap;html=1;fontFamily=Verdana;fontSize=12;labelBackgroundColor=none;strokeColor=#006EAF;fontColor=#ffffff;shadow=0;swimlaneLine=1;fixDash=0;" vertex="1" parent="GEG_1owZUJ-PFaaz2wRq-11">
          <mxGeometry x="30" width="150" height="30" as="geometry">
            <mxRectangle width="150" height="30" as="alternateBounds" />
          </mxGeometry>
        </mxCell>
        <mxCell id="GEG_1owZUJ-PFaaz2wRq-14" style="shape=tableRow;horizontal=0;startSize=0;swimlaneHead=0;swimlaneBody=0;fillColor=#1ba1e2;collapsible=0;dropTarget=0;points=[[0,0.5],[1,0.5]];portConstraint=eastwest;top=0;left=0;right=0;bottom=0;fontFamily=Verdana;fontSize=12;labelBackgroundColor=none;strokeColor=#006EAF;fontColor=#ffffff;shadow=0;swimlaneLine=1;fixDash=0;" vertex="1" parent="GEG_1owZUJ-PFaaz2wRq-7">
          <mxGeometry y="90" width="180" height="30" as="geometry" />
        </mxCell>
        <mxCell id="GEG_1owZUJ-PFaaz2wRq-15" value="FK" style="shape=partialRectangle;connectable=0;fillColor=#1ba1e2;top=0;left=0;bottom=0;right=0;editable=1;overflow=hidden;whiteSpace=wrap;html=1;fontFamily=Verdana;fontSize=12;labelBackgroundColor=none;strokeColor=#006EAF;fontColor=#ffffff;shadow=0;swimlaneLine=1;fixDash=0;fontStyle=1" vertex="1" parent="GEG_1owZUJ-PFaaz2wRq-14">
          <mxGeometry width="30" height="30" as="geometry">
            <mxRectangle width="30" height="30" as="alternateBounds" />
          </mxGeometry>
        </mxCell>
        <mxCell id="GEG_1owZUJ-PFaaz2wRq-16" value="municipality" style="shape=partialRectangle;connectable=0;fillColor=#1ba1e2;top=0;left=0;bottom=0;right=0;align=left;spacingLeft=6;overflow=hidden;whiteSpace=wrap;html=1;fontFamily=Verdana;fontSize=12;labelBackgroundColor=none;strokeColor=#006EAF;fontColor=#ffffff;shadow=0;swimlaneLine=1;fixDash=0;" vertex="1" parent="GEG_1owZUJ-PFaaz2wRq-14">
          <mxGeometry x="30" width="150" height="30" as="geometry">
            <mxRectangle width="150" height="30" as="alternateBounds" />
          </mxGeometry>
        </mxCell>
        <mxCell id="GEG_1owZUJ-PFaaz2wRq-57" style="shape=tableRow;horizontal=0;startSize=0;swimlaneHead=0;swimlaneBody=0;fillColor=#1ba1e2;collapsible=0;dropTarget=0;points=[[0,0.5],[1,0.5]];portConstraint=eastwest;top=0;left=0;right=0;bottom=0;fontFamily=Verdana;fontSize=12;labelBackgroundColor=none;strokeColor=#006EAF;fontColor=#ffffff;shadow=0;swimlaneLine=1;fixDash=0;" vertex="1" parent="GEG_1owZUJ-PFaaz2wRq-7">
          <mxGeometry y="120" width="180" height="30" as="geometry" />
        </mxCell>
        <mxCell id="GEG_1owZUJ-PFaaz2wRq-58" value="FK" style="shape=partialRectangle;connectable=0;fillColor=#1ba1e2;top=0;left=0;bottom=0;right=0;editable=1;overflow=hidden;whiteSpace=wrap;html=1;fontFamily=Verdana;fontSize=12;labelBackgroundColor=none;strokeColor=#006EAF;fontColor=#ffffff;shadow=0;swimlaneLine=1;fixDash=0;fontStyle=1" vertex="1" parent="GEG_1owZUJ-PFaaz2wRq-57">
          <mxGeometry width="30" height="30" as="geometry">
            <mxRectangle width="30" height="30" as="alternateBounds" />
          </mxGeometry>
        </mxCell>
        <mxCell id="GEG_1owZUJ-PFaaz2wRq-59" value="province" style="shape=partialRectangle;connectable=0;fillColor=#1ba1e2;top=0;left=0;bottom=0;right=0;align=left;spacingLeft=6;overflow=hidden;whiteSpace=wrap;html=1;fontFamily=Verdana;fontSize=12;labelBackgroundColor=none;strokeColor=#006EAF;fontColor=#ffffff;shadow=0;swimlaneLine=1;fixDash=0;" vertex="1" parent="GEG_1owZUJ-PFaaz2wRq-57">
          <mxGeometry x="30" width="150" height="30" as="geometry">
            <mxRectangle width="150" height="30" as="alternateBounds" />
          </mxGeometry>
        </mxCell>
        <mxCell id="GEG_1owZUJ-PFaaz2wRq-60" style="shape=tableRow;horizontal=0;startSize=0;swimlaneHead=0;swimlaneBody=0;fillColor=#1ba1e2;collapsible=0;dropTarget=0;points=[[0,0.5],[1,0.5]];portConstraint=eastwest;top=0;left=0;right=0;bottom=0;fontFamily=Verdana;fontSize=12;labelBackgroundColor=none;strokeColor=#006EAF;fontColor=#ffffff;shadow=0;swimlaneLine=1;fixDash=0;" vertex="1" parent="GEG_1owZUJ-PFaaz2wRq-7">
          <mxGeometry y="150" width="180" height="30" as="geometry" />
        </mxCell>
        <mxCell id="GEG_1owZUJ-PFaaz2wRq-61" value="FK" style="shape=partialRectangle;connectable=0;fillColor=#1ba1e2;top=0;left=0;bottom=0;right=0;editable=1;overflow=hidden;whiteSpace=wrap;html=1;fontFamily=Verdana;fontSize=12;labelBackgroundColor=none;strokeColor=#006EAF;fontColor=#ffffff;shadow=0;swimlaneLine=1;fixDash=0;fontStyle=1" vertex="1" parent="GEG_1owZUJ-PFaaz2wRq-60">
          <mxGeometry width="30" height="30" as="geometry">
            <mxRectangle width="30" height="30" as="alternateBounds" />
          </mxGeometry>
        </mxCell>
        <mxCell id="GEG_1owZUJ-PFaaz2wRq-62" value="region" style="shape=partialRectangle;connectable=0;fillColor=#1ba1e2;top=0;left=0;bottom=0;right=0;align=left;spacingLeft=6;overflow=hidden;whiteSpace=wrap;html=1;fontFamily=Verdana;fontSize=12;labelBackgroundColor=none;strokeColor=#006EAF;fontColor=#ffffff;shadow=0;swimlaneLine=1;fixDash=0;" vertex="1" parent="GEG_1owZUJ-PFaaz2wRq-60">
          <mxGeometry x="30" width="150" height="30" as="geometry">
            <mxRectangle width="150" height="30" as="alternateBounds" />
          </mxGeometry>
        </mxCell>
        <mxCell id="GEG_1owZUJ-PFaaz2wRq-36" value="barangay" style="shape=table;startSize=30;container=1;collapsible=1;childLayout=tableLayout;fixedRows=1;rowLines=0;fontStyle=1;align=center;resizeLast=1;html=1;strokeWidth=3;fontSize=12;labelBackgroundColor=none;swimlaneLine=1;shadow=0;labelBorderColor=none;fillColor=#1ba1e2;strokeColor=#006EAF;fontFamily=Verdana;fontColor=#ffffff;fixDash=0;" vertex="1" parent="1">
          <mxGeometry x="1030" y="30" width="180" height="90" as="geometry" />
        </mxCell>
        <mxCell id="GEG_1owZUJ-PFaaz2wRq-37" value="" style="shape=tableRow;horizontal=0;startSize=0;swimlaneHead=0;swimlaneBody=0;fillColor=#1ba1e2;collapsible=0;dropTarget=0;points=[[0,0.5],[1,0.5]];portConstraint=eastwest;top=0;left=0;right=0;bottom=1;strokeWidth=3;fontSize=12;labelBackgroundColor=none;strokeColor=#006EAF;swimlaneLine=1;shadow=0;labelBorderColor=none;fontFamily=Verdana;fontColor=#ffffff;fixDash=0;" vertex="1" parent="GEG_1owZUJ-PFaaz2wRq-36">
          <mxGeometry y="30" width="180" height="30" as="geometry" />
        </mxCell>
        <mxCell id="GEG_1owZUJ-PFaaz2wRq-38" value="PK" style="shape=partialRectangle;connectable=0;fillColor=#1ba1e2;top=0;left=0;bottom=0;right=0;fontStyle=1;overflow=hidden;whiteSpace=wrap;html=1;strokeWidth=3;fontSize=12;labelBackgroundColor=none;strokeColor=#006EAF;swimlaneLine=1;shadow=0;labelBorderColor=none;fontFamily=Verdana;fontColor=#ffffff;fixDash=0;" vertex="1" parent="GEG_1owZUJ-PFaaz2wRq-37">
          <mxGeometry width="30" height="30" as="geometry">
            <mxRectangle width="30" height="30" as="alternateBounds" />
          </mxGeometry>
        </mxCell>
        <mxCell id="GEG_1owZUJ-PFaaz2wRq-39" value="code" style="shape=partialRectangle;connectable=0;fillColor=#1ba1e2;top=0;left=0;bottom=0;right=0;align=left;spacingLeft=6;fontStyle=5;overflow=hidden;whiteSpace=wrap;html=1;strokeWidth=3;fontSize=12;labelBackgroundColor=none;strokeColor=#006EAF;swimlaneLine=1;shadow=0;labelBorderColor=none;fontFamily=Verdana;fontColor=#ffffff;fixDash=0;" vertex="1" parent="GEG_1owZUJ-PFaaz2wRq-37">
          <mxGeometry x="30" width="150" height="30" as="geometry">
            <mxRectangle width="150" height="30" as="alternateBounds" />
          </mxGeometry>
        </mxCell>
        <mxCell id="GEG_1owZUJ-PFaaz2wRq-40" value="" style="shape=tableRow;horizontal=0;startSize=0;swimlaneHead=0;swimlaneBody=0;fillColor=#1ba1e2;collapsible=0;dropTarget=0;points=[[0,0.5],[1,0.5]];portConstraint=eastwest;top=0;left=0;right=0;bottom=0;strokeWidth=3;fontSize=12;labelBackgroundColor=none;strokeColor=#006EAF;swimlaneLine=1;shadow=0;labelBorderColor=none;fontFamily=Verdana;fontColor=#ffffff;fixDash=0;" vertex="1" parent="GEG_1owZUJ-PFaaz2wRq-36">
          <mxGeometry y="60" width="180" height="30" as="geometry" />
        </mxCell>
        <mxCell id="GEG_1owZUJ-PFaaz2wRq-41" value="" style="shape=partialRectangle;connectable=0;fillColor=#1ba1e2;top=0;left=0;bottom=0;right=0;editable=1;overflow=hidden;whiteSpace=wrap;html=1;strokeWidth=3;fontSize=12;labelBackgroundColor=none;strokeColor=#006EAF;swimlaneLine=1;shadow=0;labelBorderColor=none;fontFamily=Verdana;fontColor=#ffffff;fixDash=0;" vertex="1" parent="GEG_1owZUJ-PFaaz2wRq-40">
          <mxGeometry width="30" height="30" as="geometry">
            <mxRectangle width="30" height="30" as="alternateBounds" />
          </mxGeometry>
        </mxCell>
        <mxCell id="GEG_1owZUJ-PFaaz2wRq-42" value="name" style="shape=partialRectangle;connectable=0;fillColor=#1ba1e2;top=0;left=0;bottom=0;right=0;align=left;spacingLeft=6;overflow=hidden;whiteSpace=wrap;html=1;strokeWidth=3;fontSize=12;labelBackgroundColor=none;strokeColor=#006EAF;swimlaneLine=1;shadow=0;labelBorderColor=none;fontFamily=Verdana;fontColor=#ffffff;fixDash=0;" vertex="1" parent="GEG_1owZUJ-PFaaz2wRq-40">
          <mxGeometry x="30" width="150" height="30" as="geometry">
            <mxRectangle width="150" height="30" as="alternateBounds" />
          </mxGeometry>
        </mxCell>
        <mxCell id="GEG_1owZUJ-PFaaz2wRq-43" value="municipality" style="shape=table;startSize=30;container=1;collapsible=1;childLayout=tableLayout;fixedRows=1;rowLines=0;fontStyle=1;align=center;resizeLast=1;html=1;strokeWidth=3;fontSize=12;labelBackgroundColor=none;swimlaneLine=1;shadow=0;labelBorderColor=none;fillColor=#1ba1e2;strokeColor=#006EAF;fontFamily=Verdana;fontColor=#ffffff;fixDash=0;" vertex="1" parent="1">
          <mxGeometry x="1030" y="150" width="180" height="90" as="geometry" />
        </mxCell>
        <mxCell id="GEG_1owZUJ-PFaaz2wRq-44" value="" style="shape=tableRow;horizontal=0;startSize=0;swimlaneHead=0;swimlaneBody=0;fillColor=#1ba1e2;collapsible=0;dropTarget=0;points=[[0,0.5],[1,0.5]];portConstraint=eastwest;top=0;left=0;right=0;bottom=1;strokeWidth=3;fontSize=12;labelBackgroundColor=none;strokeColor=#006EAF;swimlaneLine=1;shadow=0;labelBorderColor=none;fontFamily=Verdana;fontColor=#ffffff;fixDash=0;" vertex="1" parent="GEG_1owZUJ-PFaaz2wRq-43">
          <mxGeometry y="30" width="180" height="30" as="geometry" />
        </mxCell>
        <mxCell id="GEG_1owZUJ-PFaaz2wRq-45" value="PK" style="shape=partialRectangle;connectable=0;fillColor=#1ba1e2;top=0;left=0;bottom=0;right=0;fontStyle=1;overflow=hidden;whiteSpace=wrap;html=1;strokeWidth=3;fontSize=12;labelBackgroundColor=none;strokeColor=#006EAF;swimlaneLine=1;shadow=0;labelBorderColor=none;fontFamily=Verdana;fontColor=#ffffff;fixDash=0;" vertex="1" parent="GEG_1owZUJ-PFaaz2wRq-44">
          <mxGeometry width="30" height="30" as="geometry">
            <mxRectangle width="30" height="30" as="alternateBounds" />
          </mxGeometry>
        </mxCell>
        <mxCell id="GEG_1owZUJ-PFaaz2wRq-46" value="code" style="shape=partialRectangle;connectable=0;fillColor=#1ba1e2;top=0;left=0;bottom=0;right=0;align=left;spacingLeft=6;fontStyle=5;overflow=hidden;whiteSpace=wrap;html=1;strokeWidth=3;fontSize=12;labelBackgroundColor=none;strokeColor=#006EAF;swimlaneLine=1;shadow=0;labelBorderColor=none;fontFamily=Verdana;fontColor=#ffffff;fixDash=0;" vertex="1" parent="GEG_1owZUJ-PFaaz2wRq-44">
          <mxGeometry x="30" width="150" height="30" as="geometry">
            <mxRectangle width="150" height="30" as="alternateBounds" />
          </mxGeometry>
        </mxCell>
        <mxCell id="GEG_1owZUJ-PFaaz2wRq-47" value="" style="shape=tableRow;horizontal=0;startSize=0;swimlaneHead=0;swimlaneBody=0;fillColor=#1ba1e2;collapsible=0;dropTarget=0;points=[[0,0.5],[1,0.5]];portConstraint=eastwest;top=0;left=0;right=0;bottom=0;strokeWidth=3;fontSize=12;labelBackgroundColor=none;strokeColor=#006EAF;swimlaneLine=1;shadow=0;labelBorderColor=none;fontFamily=Verdana;fontColor=#ffffff;fixDash=0;" vertex="1" parent="GEG_1owZUJ-PFaaz2wRq-43">
          <mxGeometry y="60" width="180" height="30" as="geometry" />
        </mxCell>
        <mxCell id="GEG_1owZUJ-PFaaz2wRq-48" value="" style="shape=partialRectangle;connectable=0;fillColor=#1ba1e2;top=0;left=0;bottom=0;right=0;editable=1;overflow=hidden;whiteSpace=wrap;html=1;strokeWidth=3;fontSize=12;labelBackgroundColor=none;strokeColor=#006EAF;swimlaneLine=1;shadow=0;labelBorderColor=none;fontFamily=Verdana;fontColor=#ffffff;fixDash=0;" vertex="1" parent="GEG_1owZUJ-PFaaz2wRq-47">
          <mxGeometry width="30" height="30" as="geometry">
            <mxRectangle width="30" height="30" as="alternateBounds" />
          </mxGeometry>
        </mxCell>
        <mxCell id="GEG_1owZUJ-PFaaz2wRq-49" value="name" style="shape=partialRectangle;connectable=0;fillColor=#1ba1e2;top=0;left=0;bottom=0;right=0;align=left;spacingLeft=6;overflow=hidden;whiteSpace=wrap;html=1;strokeWidth=3;fontSize=12;labelBackgroundColor=none;strokeColor=#006EAF;swimlaneLine=1;shadow=0;labelBorderColor=none;fontFamily=Verdana;fontColor=#ffffff;fixDash=0;" vertex="1" parent="GEG_1owZUJ-PFaaz2wRq-47">
          <mxGeometry x="30" width="150" height="30" as="geometry">
            <mxRectangle width="150" height="30" as="alternateBounds" />
          </mxGeometry>
        </mxCell>
        <mxCell id="GEG_1owZUJ-PFaaz2wRq-50" value="province" style="shape=table;startSize=30;container=1;collapsible=1;childLayout=tableLayout;fixedRows=1;rowLines=0;fontStyle=1;align=center;resizeLast=1;html=1;strokeWidth=3;fontSize=12;labelBackgroundColor=none;swimlaneLine=1;shadow=0;labelBorderColor=none;fillColor=#1ba1e2;strokeColor=#006EAF;fontFamily=Verdana;fontColor=#ffffff;fixDash=0;" vertex="1" parent="1">
          <mxGeometry x="1030" y="260" width="180" height="90" as="geometry" />
        </mxCell>
        <mxCell id="GEG_1owZUJ-PFaaz2wRq-51" value="" style="shape=tableRow;horizontal=0;startSize=0;swimlaneHead=0;swimlaneBody=0;fillColor=#1ba1e2;collapsible=0;dropTarget=0;points=[[0,0.5],[1,0.5]];portConstraint=eastwest;top=0;left=0;right=0;bottom=1;strokeWidth=3;fontSize=12;labelBackgroundColor=none;strokeColor=#006EAF;swimlaneLine=1;shadow=0;labelBorderColor=none;fontFamily=Verdana;fontColor=#ffffff;fixDash=0;" vertex="1" parent="GEG_1owZUJ-PFaaz2wRq-50">
          <mxGeometry y="30" width="180" height="30" as="geometry" />
        </mxCell>
        <mxCell id="GEG_1owZUJ-PFaaz2wRq-52" value="PK" style="shape=partialRectangle;connectable=0;fillColor=#1ba1e2;top=0;left=0;bottom=0;right=0;fontStyle=1;overflow=hidden;whiteSpace=wrap;html=1;strokeWidth=3;fontSize=12;labelBackgroundColor=none;strokeColor=#006EAF;swimlaneLine=1;shadow=0;labelBorderColor=none;fontFamily=Verdana;fontColor=#ffffff;fixDash=0;" vertex="1" parent="GEG_1owZUJ-PFaaz2wRq-51">
          <mxGeometry width="30" height="30" as="geometry">
            <mxRectangle width="30" height="30" as="alternateBounds" />
          </mxGeometry>
        </mxCell>
        <mxCell id="GEG_1owZUJ-PFaaz2wRq-53" value="code" style="shape=partialRectangle;connectable=0;fillColor=#1ba1e2;top=0;left=0;bottom=0;right=0;align=left;spacingLeft=6;fontStyle=5;overflow=hidden;whiteSpace=wrap;html=1;strokeWidth=3;fontSize=12;labelBackgroundColor=none;strokeColor=#006EAF;swimlaneLine=1;shadow=0;labelBorderColor=none;fontFamily=Verdana;fontColor=#ffffff;fixDash=0;" vertex="1" parent="GEG_1owZUJ-PFaaz2wRq-51">
          <mxGeometry x="30" width="150" height="30" as="geometry">
            <mxRectangle width="150" height="30" as="alternateBounds" />
          </mxGeometry>
        </mxCell>
        <mxCell id="GEG_1owZUJ-PFaaz2wRq-54" value="" style="shape=tableRow;horizontal=0;startSize=0;swimlaneHead=0;swimlaneBody=0;fillColor=#1ba1e2;collapsible=0;dropTarget=0;points=[[0,0.5],[1,0.5]];portConstraint=eastwest;top=0;left=0;right=0;bottom=0;strokeWidth=3;fontSize=12;labelBackgroundColor=none;strokeColor=#006EAF;swimlaneLine=1;shadow=0;labelBorderColor=none;fontFamily=Verdana;fontColor=#ffffff;fixDash=0;" vertex="1" parent="GEG_1owZUJ-PFaaz2wRq-50">
          <mxGeometry y="60" width="180" height="30" as="geometry" />
        </mxCell>
        <mxCell id="GEG_1owZUJ-PFaaz2wRq-55" value="" style="shape=partialRectangle;connectable=0;fillColor=#1ba1e2;top=0;left=0;bottom=0;right=0;editable=1;overflow=hidden;whiteSpace=wrap;html=1;strokeWidth=3;fontSize=12;labelBackgroundColor=none;strokeColor=#006EAF;swimlaneLine=1;shadow=0;labelBorderColor=none;fontFamily=Verdana;fontColor=#ffffff;fixDash=0;" vertex="1" parent="GEG_1owZUJ-PFaaz2wRq-54">
          <mxGeometry width="30" height="30" as="geometry">
            <mxRectangle width="30" height="30" as="alternateBounds" />
          </mxGeometry>
        </mxCell>
        <mxCell id="GEG_1owZUJ-PFaaz2wRq-56" value="name" style="shape=partialRectangle;connectable=0;fillColor=#1ba1e2;top=0;left=0;bottom=0;right=0;align=left;spacingLeft=6;overflow=hidden;whiteSpace=wrap;html=1;strokeWidth=3;fontSize=12;labelBackgroundColor=none;strokeColor=#006EAF;swimlaneLine=1;shadow=0;labelBorderColor=none;fontFamily=Verdana;fontColor=#ffffff;fixDash=0;" vertex="1" parent="GEG_1owZUJ-PFaaz2wRq-54">
          <mxGeometry x="30" width="150" height="30" as="geometry">
            <mxRectangle width="150" height="30" as="alternateBounds" />
          </mxGeometry>
        </mxCell>
        <mxCell id="GEG_1owZUJ-PFaaz2wRq-63" value="region" style="shape=table;startSize=30;container=1;collapsible=1;childLayout=tableLayout;fixedRows=1;rowLines=0;fontStyle=1;align=center;resizeLast=1;html=1;strokeWidth=3;fontSize=12;labelBackgroundColor=none;swimlaneLine=1;shadow=0;labelBorderColor=none;fillColor=#1ba1e2;strokeColor=#006EAF;fontFamily=Verdana;fontColor=#ffffff;fixDash=0;" vertex="1" parent="1">
          <mxGeometry x="1030" y="380" width="180" height="90" as="geometry" />
        </mxCell>
        <mxCell id="GEG_1owZUJ-PFaaz2wRq-64" value="" style="shape=tableRow;horizontal=0;startSize=0;swimlaneHead=0;swimlaneBody=0;fillColor=#1ba1e2;collapsible=0;dropTarget=0;points=[[0,0.5],[1,0.5]];portConstraint=eastwest;top=0;left=0;right=0;bottom=1;strokeWidth=3;fontSize=12;labelBackgroundColor=none;strokeColor=#006EAF;swimlaneLine=1;shadow=0;labelBorderColor=none;fontFamily=Verdana;fontColor=#ffffff;fixDash=0;" vertex="1" parent="GEG_1owZUJ-PFaaz2wRq-63">
          <mxGeometry y="30" width="180" height="30" as="geometry" />
        </mxCell>
        <mxCell id="GEG_1owZUJ-PFaaz2wRq-65" value="PK" style="shape=partialRectangle;connectable=0;fillColor=#1ba1e2;top=0;left=0;bottom=0;right=0;fontStyle=1;overflow=hidden;whiteSpace=wrap;html=1;strokeWidth=3;fontSize=12;labelBackgroundColor=none;strokeColor=#006EAF;swimlaneLine=1;shadow=0;labelBorderColor=none;fontFamily=Verdana;fontColor=#ffffff;fixDash=0;" vertex="1" parent="GEG_1owZUJ-PFaaz2wRq-64">
          <mxGeometry width="30" height="30" as="geometry">
            <mxRectangle width="30" height="30" as="alternateBounds" />
          </mxGeometry>
        </mxCell>
        <mxCell id="GEG_1owZUJ-PFaaz2wRq-66" value="code" style="shape=partialRectangle;connectable=0;fillColor=#1ba1e2;top=0;left=0;bottom=0;right=0;align=left;spacingLeft=6;fontStyle=5;overflow=hidden;whiteSpace=wrap;html=1;strokeWidth=3;fontSize=12;labelBackgroundColor=none;strokeColor=#006EAF;swimlaneLine=1;shadow=0;labelBorderColor=none;fontFamily=Verdana;fontColor=#ffffff;fixDash=0;" vertex="1" parent="GEG_1owZUJ-PFaaz2wRq-64">
          <mxGeometry x="30" width="150" height="30" as="geometry">
            <mxRectangle width="150" height="30" as="alternateBounds" />
          </mxGeometry>
        </mxCell>
        <mxCell id="GEG_1owZUJ-PFaaz2wRq-67" value="" style="shape=tableRow;horizontal=0;startSize=0;swimlaneHead=0;swimlaneBody=0;fillColor=#1ba1e2;collapsible=0;dropTarget=0;points=[[0,0.5],[1,0.5]];portConstraint=eastwest;top=0;left=0;right=0;bottom=0;strokeWidth=3;fontSize=12;labelBackgroundColor=none;strokeColor=#006EAF;swimlaneLine=1;shadow=0;labelBorderColor=none;fontFamily=Verdana;fontColor=#ffffff;fixDash=0;" vertex="1" parent="GEG_1owZUJ-PFaaz2wRq-63">
          <mxGeometry y="60" width="180" height="30" as="geometry" />
        </mxCell>
        <mxCell id="GEG_1owZUJ-PFaaz2wRq-68" value="" style="shape=partialRectangle;connectable=0;fillColor=#1ba1e2;top=0;left=0;bottom=0;right=0;editable=1;overflow=hidden;whiteSpace=wrap;html=1;strokeWidth=3;fontSize=12;labelBackgroundColor=none;strokeColor=#006EAF;swimlaneLine=1;shadow=0;labelBorderColor=none;fontFamily=Verdana;fontColor=#ffffff;fixDash=0;" vertex="1" parent="GEG_1owZUJ-PFaaz2wRq-67">
          <mxGeometry width="30" height="30" as="geometry">
            <mxRectangle width="30" height="30" as="alternateBounds" />
          </mxGeometry>
        </mxCell>
        <mxCell id="GEG_1owZUJ-PFaaz2wRq-69" value="name" style="shape=partialRectangle;connectable=0;fillColor=#1ba1e2;top=0;left=0;bottom=0;right=0;align=left;spacingLeft=6;overflow=hidden;whiteSpace=wrap;html=1;strokeWidth=3;fontSize=12;labelBackgroundColor=none;strokeColor=#006EAF;swimlaneLine=1;shadow=0;labelBorderColor=none;fontFamily=Verdana;fontColor=#ffffff;fixDash=0;" vertex="1" parent="GEG_1owZUJ-PFaaz2wRq-67">
          <mxGeometry x="30" width="150" height="30" as="geometry">
            <mxRectangle width="150" height="30" as="alternateBounds" />
          </mxGeometry>
        </mxCell>
        <mxCell id="GEG_1owZUJ-PFaaz2wRq-70" style="edgeStyle=orthogonalEdgeStyle;rounded=0;orthogonalLoop=1;jettySize=auto;html=1;exitX=0;exitY=0.5;exitDx=0;exitDy=0;entryX=1;entryY=0.3;entryDx=0;entryDy=0;entryPerimeter=0;endArrow=ERoneToMany;endFill=0;startArrow=ERmandOne;startFill=0;fontFamily=Verdana;fontSize=12;labelBackgroundColor=none;fillColor=#1ba1e2;strokeColor=#006EAF;shadow=0;swimlaneLine=1;fixDash=0;" edge="1" parent="1" source="GEG_1owZUJ-PFaaz2wRq-36" target="GEG_1owZUJ-PFaaz2wRq-11">
          <mxGeometry relative="1" as="geometry" />
        </mxCell>
        <mxCell id="GEG_1owZUJ-PFaaz2wRq-71" style="edgeStyle=orthogonalEdgeStyle;rounded=0;orthogonalLoop=1;jettySize=auto;html=1;exitX=1;exitY=0.5;exitDx=0;exitDy=0;entryX=0;entryY=0.5;entryDx=0;entryDy=0;endArrow=ERmandOne;endFill=0;startArrow=ERoneToMany;startFill=0;fontFamily=Verdana;fontSize=12;labelBackgroundColor=none;fillColor=#1ba1e2;strokeColor=#006EAF;shadow=0;swimlaneLine=1;fixDash=0;" edge="1" parent="1" source="GEG_1owZUJ-PFaaz2wRq-14" target="GEG_1owZUJ-PFaaz2wRq-43">
          <mxGeometry relative="1" as="geometry" />
        </mxCell>
        <mxCell id="GEG_1owZUJ-PFaaz2wRq-72" style="edgeStyle=orthogonalEdgeStyle;rounded=0;orthogonalLoop=1;jettySize=auto;html=1;exitX=0;exitY=0.5;exitDx=0;exitDy=0;entryX=1;entryY=0.5;entryDx=0;entryDy=0;endArrow=ERoneToMany;endFill=0;startArrow=ERmandOne;startFill=0;fontFamily=Verdana;fontSize=12;labelBackgroundColor=none;fillColor=#1ba1e2;strokeColor=#006EAF;shadow=0;swimlaneLine=1;fixDash=0;" edge="1" parent="1" source="GEG_1owZUJ-PFaaz2wRq-51" target="GEG_1owZUJ-PFaaz2wRq-57">
          <mxGeometry relative="1" as="geometry">
            <Array as="points">
              <mxPoint x="890" y="305" />
              <mxPoint x="890" y="175" />
            </Array>
          </mxGeometry>
        </mxCell>
        <mxCell id="GEG_1owZUJ-PFaaz2wRq-73" style="edgeStyle=orthogonalEdgeStyle;rounded=0;orthogonalLoop=1;jettySize=auto;html=1;exitX=1;exitY=0.5;exitDx=0;exitDy=0;entryX=0;entryY=0.5;entryDx=0;entryDy=0;endArrow=ERmandOne;endFill=0;startArrow=ERoneToMany;startFill=0;fontFamily=Verdana;fontSize=12;labelBackgroundColor=none;fillColor=#1ba1e2;strokeColor=#006EAF;shadow=0;swimlaneLine=1;fixDash=0;" edge="1" parent="1" source="GEG_1owZUJ-PFaaz2wRq-60" target="GEG_1owZUJ-PFaaz2wRq-63">
          <mxGeometry relative="1" as="geometry">
            <Array as="points">
              <mxPoint x="870" y="205" />
              <mxPoint x="870" y="425" />
            </Array>
          </mxGeometry>
        </mxCell>
        <mxCell id="GEG_1owZUJ-PFaaz2wRq-74" value="Place_Agency" style="shape=table;startSize=30;container=1;collapsible=1;childLayout=tableLayout;fixedRows=1;rowLines=0;fontStyle=1;align=center;resizeLast=1;html=1;fontFamily=Verdana;fontSize=12;labelBackgroundColor=none;fillColor=#1ba1e2;strokeColor=#006EAF;fontColor=#ffffff;shadow=0;swimlaneLine=1;fixDash=0;" vertex="1" parent="1">
          <mxGeometry x="450" y="40" width="180" height="90" as="geometry">
            <mxRectangle x="260" y="150" width="80" height="30" as="alternateBounds" />
          </mxGeometry>
        </mxCell>
        <mxCell id="GEG_1owZUJ-PFaaz2wRq-75" value="" style="shape=tableRow;horizontal=0;startSize=0;swimlaneHead=0;swimlaneBody=0;fillColor=#1ba1e2;collapsible=0;dropTarget=0;points=[[0,0.5],[1,0.5]];portConstraint=eastwest;top=0;left=0;right=0;bottom=1;fontFamily=Verdana;fontSize=12;labelBackgroundColor=none;strokeColor=#006EAF;fontColor=#ffffff;shadow=0;swimlaneLine=1;fixDash=0;" vertex="1" parent="GEG_1owZUJ-PFaaz2wRq-74">
          <mxGeometry y="30" width="180" height="30" as="geometry" />
        </mxCell>
        <mxCell id="GEG_1owZUJ-PFaaz2wRq-76" value="FK" style="shape=partialRectangle;connectable=0;fillColor=#1ba1e2;top=0;left=0;bottom=0;right=0;fontStyle=1;overflow=hidden;whiteSpace=wrap;html=1;fontFamily=Verdana;fontSize=12;labelBackgroundColor=none;strokeColor=#006EAF;fontColor=#ffffff;shadow=0;swimlaneLine=1;fixDash=0;" vertex="1" parent="GEG_1owZUJ-PFaaz2wRq-75">
          <mxGeometry width="30" height="30" as="geometry">
            <mxRectangle width="30" height="30" as="alternateBounds" />
          </mxGeometry>
        </mxCell>
        <mxCell id="GEG_1owZUJ-PFaaz2wRq-77" value="agency" style="shape=partialRectangle;connectable=0;fillColor=#1ba1e2;top=0;left=0;bottom=0;right=0;align=left;spacingLeft=6;fontStyle=5;overflow=hidden;whiteSpace=wrap;html=1;fontFamily=Verdana;fontSize=12;labelBackgroundColor=none;strokeColor=#006EAF;fontColor=#ffffff;shadow=0;swimlaneLine=1;fixDash=0;" vertex="1" parent="GEG_1owZUJ-PFaaz2wRq-75">
          <mxGeometry x="30" width="150" height="30" as="geometry">
            <mxRectangle width="150" height="30" as="alternateBounds" />
          </mxGeometry>
        </mxCell>
        <mxCell id="GEG_1owZUJ-PFaaz2wRq-78" value="" style="shape=tableRow;horizontal=0;startSize=0;swimlaneHead=0;swimlaneBody=0;fillColor=#1ba1e2;collapsible=0;dropTarget=0;points=[[0,0.5],[1,0.5]];portConstraint=eastwest;top=0;left=0;right=0;bottom=0;fontFamily=Verdana;fontSize=12;labelBackgroundColor=none;strokeColor=#006EAF;fontColor=#ffffff;shadow=0;swimlaneLine=1;fixDash=0;" vertex="1" parent="GEG_1owZUJ-PFaaz2wRq-74">
          <mxGeometry y="60" width="180" height="30" as="geometry" />
        </mxCell>
        <mxCell id="GEG_1owZUJ-PFaaz2wRq-79" value="FK" style="shape=partialRectangle;connectable=0;fillColor=#1ba1e2;top=0;left=0;bottom=0;right=0;editable=1;overflow=hidden;whiteSpace=wrap;html=1;fontFamily=Verdana;fontSize=12;labelBackgroundColor=none;strokeColor=#006EAF;fontColor=#ffffff;shadow=0;swimlaneLine=1;fixDash=0;fontStyle=1" vertex="1" parent="GEG_1owZUJ-PFaaz2wRq-78">
          <mxGeometry width="30" height="30" as="geometry">
            <mxRectangle width="30" height="30" as="alternateBounds" />
          </mxGeometry>
        </mxCell>
        <mxCell id="GEG_1owZUJ-PFaaz2wRq-80" value="place" style="shape=partialRectangle;connectable=0;fillColor=#1ba1e2;top=0;left=0;bottom=0;right=0;align=left;spacingLeft=6;overflow=hidden;whiteSpace=wrap;html=1;fontFamily=Verdana;fontSize=12;labelBackgroundColor=none;strokeColor=#006EAF;fontColor=#ffffff;shadow=0;swimlaneLine=1;fixDash=0;" vertex="1" parent="GEG_1owZUJ-PFaaz2wRq-78">
          <mxGeometry x="30" width="150" height="30" as="geometry">
            <mxRectangle width="150" height="30" as="alternateBounds" />
          </mxGeometry>
        </mxCell>
        <mxCell id="GEG_1owZUJ-PFaaz2wRq-82" style="edgeStyle=orthogonalEdgeStyle;rounded=0;orthogonalLoop=1;jettySize=auto;html=1;exitX=1;exitY=0.5;exitDx=0;exitDy=0;entryX=0;entryY=0.5;entryDx=0;entryDy=0;endArrow=ERoneToMany;endFill=0;startArrow=ERmandOne;startFill=0;fontFamily=Verdana;fontSize=12;labelBackgroundColor=none;fillColor=#1ba1e2;strokeColor=#006EAF;shadow=0;swimlaneLine=1;fixDash=0;" edge="1" parent="1" source="YAL7oIk_EPzpiQccKfd0-47" target="GEG_1owZUJ-PFaaz2wRq-75">
          <mxGeometry relative="1" as="geometry" />
        </mxCell>
        <mxCell id="GEG_1owZUJ-PFaaz2wRq-83" style="edgeStyle=orthogonalEdgeStyle;rounded=0;orthogonalLoop=1;jettySize=auto;html=1;exitX=0;exitY=0.5;exitDx=0;exitDy=0;entryX=1;entryY=0.5;entryDx=0;entryDy=0;endArrow=ERoneToMany;endFill=0;startArrow=ERmandOne;startFill=0;fontFamily=Verdana;fontSize=12;labelBackgroundColor=none;fillColor=#1ba1e2;strokeColor=#006EAF;shadow=0;swimlaneLine=1;fixDash=0;" edge="1" parent="1" source="GEG_1owZUJ-PFaaz2wRq-8" target="GEG_1owZUJ-PFaaz2wRq-78">
          <mxGeometry relative="1" as="geometry" />
        </mxCell>
      </root>
    </mxGraphModel>
  </diagram>
</mxfile>
